<?xml version="1.0" standalone="no"?>
<svg xmlns:xlink="http://www.w3.org/1999/xlink" id="wave" style="transform:rotate(0deg); transition: 0.3s" viewBox="0 0 1440 400" version="1.1" xmlns="http://www.w3.org/2000/svg"><defs><linearGradient id="sw-gradient-0" x1="0" x2="0" y1="1" y2="0"><stop stop-color="rgba(251, 185, 79, 1)" offset="0%"/><stop stop-color="rgba(251, 185, 79, 1)" offset="100%"/></linearGradient></defs><path style="transform:translate(0, 0px); opacity:1" fill="url(#sw-gradient-0)" d="M0,40L80,73.3C160,107,320,173,480,173.3C640,173,800,107,960,113.3C1120,120,1280,200,1440,213.3C1600,227,1760,173,1920,166.7C2080,160,2240,200,2400,206.7C2560,213,2720,187,2880,160C3040,133,3200,107,3360,113.3C3520,120,3680,160,3840,173.3C4000,187,4160,173,4320,140C4480,107,4640,53,4800,60C4960,67,5120,133,5280,186.7C5440,240,5600,280,5760,260C5920,240,6080,160,6240,146.7C6400,133,6560,187,6720,186.7C6880,187,7040,133,7200,120C7360,107,7520,133,7680,120C7840,107,8000,53,8160,40C8320,27,8480,53,8640,93.3C8800,133,8960,187,9120,193.3C9280,200,9440,160,9600,166.7C9760,173,9920,227,10080,213.3C10240,200,10400,120,10560,106.7C10720,93,10880,147,11040,160C11200,173,11360,147,11440,133.3L11520,120L11520,400L11440,400C11360,400,11200,400,11040,400C10880,400,10720,400,10560,400C10400,400,10240,400,10080,400C9920,400,9760,400,9600,400C9440,400,9280,400,9120,400C8960,400,8800,400,8640,400C8480,400,8320,400,8160,400C8000,400,7840,400,7680,400C7520,400,7360,400,7200,400C7040,400,6880,400,6720,400C6560,400,6400,400,6240,400C6080,400,5920,400,5760,400C5600,400,5440,400,5280,400C5120,400,4960,400,4800,400C4640,400,4480,400,4320,400C4160,400,4000,400,3840,400C3680,400,3520,400,3360,400C3200,400,3040,400,2880,400C2720,400,2560,400,2400,400C2240,400,2080,400,1920,400C1760,400,1600,400,1440,400C1280,400,1120,400,960,400C800,400,640,400,480,400C320,400,160,400,80,400L0,400Z"/></svg>